<?xml version="1.0" standalone="no"?>
<!DOCTYPE svg PUBLIC "-//W3C//DTD SVG 20010904//EN"
 "http://www.w3.org/TR/2001/REC-SVG-20010904/DTD/svg10.dtd">
<svg version="1.0" xmlns="http://www.w3.org/2000/svg"
 width="3276.000000pt" height="3276.000000pt" viewBox="0 0 3276.000000 3276.000000"
 preserveAspectRatio="xMidYMid meet">
<rect width="3276" height="3276" rx="520" fill="#0A0A0A"/>
<metadata>
Created by potrace 1.16, written by Peter Selinger 2001-2019
</metadata>
<g transform="translate(0.000000,3276.000000) scale(0.100000,-0.100000)"
fill="#FFFFFF" stroke="none">
<path d="M27965 23824 c-96 -11 -212 -33 -335 -63 -36 -9 -166 -54 -255 -89
-166 -64 -387 -190 -545 -310 -153 -116 -348 -309 -483 -477 -257 -320 -538
-810 -759 -1325 -56 -129 -58 -134 -122 -315 -46 -128 -163 -481 -191 -580 -8
-27 -35 -117 -59 -200 -47 -159 -93 -332 -107 -402 -7 -38 -36 -161 -74 -318
-45 -189 -83 -418 -150 -900 -8 -60 -22 -155 -30 -210 -44 -303 -63 -463 -75
-645 -5 -80 -14 -192 -20 -250 -41 -436 -71 -1450 -60 -2000 l5 -245 308 -3
307 -2 0 41 c0 23 -6 83 -14 133 -8 50 -20 163 -26 251 -31 417 -30 447 13
461 19 6 113 70 247 167 84 62 96 61 102 -5 5 -45 11 -57 44 -86 38 -33 41
-34 107 -29 50 4 67 3 67 -7 0 -18 49 -61 87 -75 40 -16 57 -36 73 -84 15 -48
3 -65 -31 -46 -35 18 -166 49 -211 49 -31 0 -40 -4 -47 -22 -18 -48 28 -90 59
-53 28 34 168 5 232 -47 16 -13 43 -54 61 -91 l34 -68 -33 -68 c-19 -37 -45
-103 -59 -147 -15 -43 -37 -98 -51 -122 -27 -45 -25 -62 7 -62 18 0 20 -5 15
-37 -18 -122 -18 -130 -1 -147 14 -13 20 -14 32 -5 11 10 14 38 12 133 -2 101
1 130 18 173 25 63 89 180 105 189 16 10 44 -28 100 -141 65 -129 81 -151 117
-158 33 -7 92 -56 75 -63 -44 -19 -46 -27 -17 -83 45 -92 85 -123 188 -149 50
-13 94 -27 99 -32 4 -4 11 -28 13 -53 5 -39 3 -46 -15 -51 -11 -4 -26 -5 -33
-4 -7 2 -15 -5 -17 -16 -5 -21 78 -110 147 -159 42 -29 45 -29 55 -12 6 10 21
30 33 44 21 25 21 25 42 7 31 -28 34 -50 16 -124 -17 -68 -17 -70 5 -113 30
-60 310 -337 431 -426 79 -58 106 -73 145 -78 165 -21 183 -26 204 -55 34 -48
23 -70 -36 -70 -67 0 18 -111 124 -161 86 -42 160 -58 258 -59 89 0 169 21
184 50 5 10 24 26 42 37 26 15 37 32 51 75 26 82 24 92 -17 84 -26 -5 -35 -3
-40 10 -21 54 10 80 50 43 25 -24 26 -24 40 -5 17 24 18 76 3 146 -12 55 -29
64 -47 25 -22 -47 -52 -26 -52 36 0 36 24 48 49 25 11 -10 21 -14 24 -9 3 4 8
51 12 103 7 90 10 99 56 178 27 45 49 87 49 93 0 6 14 37 30 71 17 33 30 66
30 74 0 21 16 17 33 -8 14 -22 22 -23 124 -23 105 0 111 -1 142 -27 40 -34 52
-35 89 -3 19 16 42 25 65 25 19 0 45 9 60 20 14 11 29 20 35 20 5 0 17 9 26
19 13 15 26 18 56 14 35 -5 40 -3 54 25 9 17 16 37 16 45 0 29 58 214 74 240
21 30 15 55 -22 107 -60 82 -84 100 -167 125 -45 14 -89 25 -98 25 -15 0 -65
19 -109 41 -48 24 -127 49 -156 49 -25 0 -35 -6 -44 -25 -7 -16 -15 -22 -22
-16 -10 8 -104 31 -126 31 -6 0 -10 -4 -10 -9 0 -13 82 -41 121 -41 19 0 39
-4 44 -9 6 -5 39 -21 75 -36 102 -42 133 -81 92 -118 -23 -21 -69 -22 -136 -3
-28 8 -80 22 -116 32 -181 47 -514 169 -702 258 -42 20 -82 36 -88 36 -5 0
-10 5 -10 10 0 6 8 10 18 10 25 0 342 -74 447 -104 50 -14 105 -26 123 -26 29
0 32 2 23 19 -6 11 -33 26 -63 34 -51 15 -78 22 -273 67 -49 11 -112 27 -140
35 -27 8 -133 37 -235 65 -288 80 -490 150 -490 172 0 14 74 4 155 -21 39 -12
90 -27 115 -33 25 -6 51 -15 58 -21 7 -6 26 -11 41 -12 33 -2 189 -39 276 -65
114 -35 181 -45 209 -32 51 23 24 62 -89 128 -84 49 -129 74 -160 90 -16 8
-43 23 -60 34 -39 26 -34 24 -155 64 -58 19 -150 52 -205 74 -55 22 -127 48
-160 58 -79 24 -136 49 -167 74 -14 11 -48 31 -76 45 -27 14 -85 56 -127 95
-42 38 -116 93 -163 122 -108 64 -162 105 -162 124 0 7 11 20 23 29 28 18 214
83 272 96 60 12 168 52 196 71 176 125 336 229 524 341 28 17 142 89 223 140
66 43 144 77 172 77 28 -1 60 -37 60 -68 0 -22 -10 -39 -39 -65 -43 -39 -44
-39 -186 -122 -55 -33 -136 -82 -180 -110 -44 -28 -109 -64 -145 -79 -36 -16
-98 -44 -138 -62 -40 -19 -75 -34 -79 -34 -4 0 -14 -6 -22 -13 -9 -8 -45 -21
-81 -31 -36 -10 -94 -28 -130 -41 -36 -13 -75 -26 -87 -30 -27 -7 -36 -30 -18
-45 11 -9 37 -5 112 15 54 14 109 30 123 36 14 6 112 33 219 60 211 54 257 57
461 39 58 -6 155 -14 215 -19 213 -19 421 -42 470 -53 75 -16 171 -57 203 -87
72 -65 70 -214 -3 -281 -22 -21 -36 -25 -88 -25 -34 0 -84 6 -112 14 -100 26
-161 44 -198 57 -20 8 -57 14 -80 14 -24 0 -92 6 -153 14 -152 20 -430 39
-460 32 -14 -4 -89 -9 -167 -12 -78 -3 -144 -7 -146 -9 -2 -2 -1 -11 2 -18 4
-10 31 -16 94 -21 48 -4 138 -13 198 -21 61 -8 160 -19 220 -25 179 -16 365
-39 374 -45 5 -3 88 -13 184 -24 161 -17 178 -21 211 -46 41 -31 52 -59 38
-96 -7 -16 -6 -31 0 -43 14 -25 38 -2 38 38 0 37 34 96 55 96 8 0 24 -14 35
-32 17 -28 17 -34 5 -58 -7 -15 -21 -33 -31 -41 -9 -7 -27 -31 -40 -51 -27
-42 -57 -64 -111 -83 -31 -11 -46 -10 -102 5 -109 29 -343 55 -369 41 -28 -15
-28 -37 -2 -51 29 -15 14 -33 -24 -27 -87 13 -291 49 -297 53 -10 6 -39 -6
-39 -17 0 -5 10 -9 23 -9 13 0 27 -4 32 -9 6 -5 78 -21 160 -35 83 -14 170
-30 195 -36 144 -31 338 -38 489 -20 93 12 141 38 141 77 0 16 6 23 19 23 11
0 35 9 54 20 36 21 157 161 190 219 11 20 34 52 52 71 34 38 53 80 80 177 11
39 28 72 46 89 21 20 29 37 29 61 0 19 13 84 30 146 34 130 37 191 23 568 l-8
236 -36 59 c-20 32 -39 66 -43 74 -3 8 -15 29 -25 46 -10 17 -30 51 -43 75
-13 24 -54 90 -91 146 -54 81 -76 106 -110 122 -23 11 -87 64 -142 116 -55 52
-107 101 -115 108 -11 8 -20 49 -29 122 -7 61 -18 118 -23 128 -19 36 -48 169
-54 244 -6 74 -48 207 -76 241 -8 9 -10 93 -9 264 2 221 5 256 22 300 23 59
14 92 -16 58 -21 -23 -45 -27 -45 -6 0 21 28 39 59 38 25 -1 29 4 35 36 10 63
7 112 -10 137 -13 20 -15 38 -10 88 12 109 -16 110 -156 4 -43 -32 -107 -71
-143 -87 -96 -43 -158 -88 -269 -195 -54 -52 -110 -98 -125 -102 -14 -3 -47
-19 -74 -35 -26 -15 -50 -28 -53 -28 -10 0 -119 -73 -146 -99 -16 -13 -28 -30
-28 -37 0 -15 -48 -74 -60 -74 -5 0 -26 -11 -46 -25 -41 -28 -62 -30 -111 -13
-37 13 -67 1 -173 -74 -30 -22 -91 -63 -135 -93 -97 -64 -152 -121 -195 -200
-49 -90 -84 -140 -99 -140 -7 0 -18 16 -25 35 -17 55 -43 50 -97 -17 -58 -74
-109 -156 -109 -174 0 -9 -7 -24 -15 -35 -8 -10 -15 -27 -15 -38 0 -14 5 -17
25 -12 35 9 40 -11 15 -66 -18 -42 -61 -84 -115 -114 -11 -6 -26 -31 -34 -55
-8 -24 -41 -107 -72 -184 -161 -395 -261 -853 -277 -1275 l-7 -175 -30 -14
c-55 -26 -115 -25 -194 3 -40 14 -86 26 -103 26 -17 0 -40 7 -50 17 -10 9 -21
13 -25 10 -3 -4 10 -22 30 -40 20 -18 37 -40 37 -49 0 -21 -46 -58 -72 -58
-39 0 -60 -19 -53 -49 5 -26 0 -32 -79 -85 -46 -31 -119 -83 -161 -116 -43
-33 -83 -60 -90 -60 -16 0 -22 74 -35 410 -6 140 -15 350 -20 465 -13 270 -13
717 0 915 5 85 14 250 20 365 13 286 26 433 76 895 24 218 100 696 149 935 96
468 133 608 238 915 21 63 41 124 44 135 13 50 174 435 227 545 92 186 230
428 288 501 15 20 28 40 28 43 0 14 155 208 232 292 205 222 386 362 613 473
186 91 330 133 525 152 107 10 146 9 268 -5 79 -9 152 -21 162 -26 10 -6 29
-10 43 -10 42 0 209 -60 337 -122 223 -107 400 -236 595 -432 257 -259 467
-563 682 -986 29 -58 53 -109 53 -114 0 -5 6 -17 13 -25 8 -9 29 -52 47 -96
18 -44 37 -84 41 -90 8 -11 117 -281 168 -415 18 -47 45 -119 61 -160 16 -41
51 -142 79 -225 28 -82 55 -163 61 -180 6 -16 19 -57 29 -90 20 -62 32 -72 77
-61 29 8 43 54 33 111 -5 22 -15 81 -24 130 -9 50 -22 119 -30 155 -26 127
-43 216 -60 315 -22 130 -43 248 -56 310 -6 28 -14 75 -19 105 -5 30 -18 109
-30 175 -37 210 -77 442 -135 795 -9 52 -32 185 -51 295 -19 110 -41 236 -49
280 -30 175 -31 178 -68 210 -46 40 -295 181 -437 248 -168 79 -438 177 -585
212 -38 9 -86 21 -106 26 -67 17 -203 39 -329 54 -148 18 -304 17 -455 -1z
m419 -3994 c34 -13 33 -26 -4 -45 -63 -33 -120 -3 -71 37 26 21 39 22 75 8z
m136 -158 c0 -23 -19 -42 -41 -42 -29 0 -34 22 -9 42 28 23 50 23 50 0z m-390
-11 c8 -16 3 -27 -24 -60 -19 -23 -38 -56 -42 -73 -16 -74 -69 -115 -162 -124
-101 -11 -152 16 -152 79 0 40 62 115 134 163 48 31 56 33 143 33 81 1 94 -1
103 -18z m378 -184 c4 -19 -32 -57 -53 -57 -22 0 -18 30 7 57 24 25 41 26 46
0z m-230 -23 c29 -20 28 -32 -10 -71 -21 -22 -41 -33 -60 -33 -53 0 -50 64 4
99 40 25 38 25 66 5z m212 -207 c0 -15 -54 -49 -64 -40 -8 9 34 53 51 53 7 0
13 -6 13 -13z m-509 -36 c33 -34 35 -50 14 -112 -28 -82 -92 -148 -231 -241
-349 -231 -367 -242 -425 -263 -54 -20 -69 -6 -69 63 0 136 61 218 285 383
193 142 257 181 310 190 73 12 86 10 116 -20z m-850 -31 c32 -18 26 -88 -12
-136 -62 -78 -150 -137 -178 -119 -19 11 -12 59 16 100 37 56 133 165 145 165
5 0 18 -5 29 -10z m1108 -9 c12 -8 13 -15 3 -35 -12 -28 -57 -45 -74 -28 -15
15 -1 47 25 60 28 13 29 14 46 3z m-815 -10 c3 -5 3 -24 -1 -42 -4 -25 -29
-56 -87 -114 -93 -92 -132 -117 -146 -95 -6 8 -10 39 -10 68 0 47 4 59 36 95
47 55 191 116 208 88z m1139 -147 c9 -10 -4 -34 -19 -34 -8 0 -14 6 -14 13 0
22 19 35 33 21z m-202 -14 c10 -6 19 -20 19 -32 0 -25 -27 -58 -47 -58 -23 0
-32 42 -17 73 16 30 18 31 45 17z m-225 -125 c3 -14 15 -30 26 -36 27 -15 68
-106 68 -152 0 -46 -30 -108 -66 -136 -14 -11 -49 -29 -78 -40 -29 -10 -113
-50 -187 -88 -74 -37 -164 -81 -199 -97 -133 -59 -274 -129 -334 -165 -96 -59
-177 -94 -227 -99 -74 -7 -75 -13 25 200 26 53 46 102 46 108 0 29 45 70 117
106 43 21 110 60 148 85 39 26 129 84 200 129 72 46 153 98 180 116 31 21 62
34 82 34 18 0 48 11 68 24 20 14 43 22 54 19 11 -3 28 0 38 6 27 15 32 14 39
-14z m481 -101 c6 -16 -19 -44 -39 -44 -19 0 -21 33 -3 46 25 18 34 18 42 -2z
m-1524 -53 c16 -6 31 -25 42 -54 16 -41 16 -49 1 -107 -9 -34 -16 -74 -16 -88
0 -27 -31 -134 -48 -169 -5 -10 -42 -84 -82 -165 -64 -130 -111 -211 -292
-502 -24 -38 -54 -92 -68 -120 -14 -28 -44 -80 -68 -116 -23 -36 -42 -73 -42
-82 0 -10 -25 -54 -55 -98 -58 -85 -64 -100 -41 -100 21 0 55 31 95 88 20 28
75 103 122 164 47 62 132 182 190 267 57 85 122 174 144 197 60 63 314 195
470 243 39 12 99 39 135 60 85 50 166 87 210 96 44 9 78 26 161 81 37 24 70
44 75 44 4 0 40 20 79 45 39 24 90 47 113 51 87 14 165 -58 198 -183 12 -45
11 -58 -2 -94 -8 -24 -22 -52 -32 -62 -32 -36 -117 -84 -162 -92 -25 -4 -61
-16 -82 -26 -20 -10 -67 -30 -105 -44 -37 -14 -103 -46 -145 -70 -43 -25 -101
-58 -130 -74 -95 -51 -222 -129 -308 -190 -36 -25 -114 -82 -175 -126 -246
-183 -493 -337 -720 -452 -77 -39 -177 -90 -222 -113 -115 -59 -118 -57 -109
84 4 63 16 165 27 227 11 63 24 148 27 191 5 52 13 82 25 96 10 11 25 40 32
64 8 23 23 68 35 98 12 30 25 66 30 80 30 94 175 405 216 466 27 39 57 92 133
236 56 107 103 164 173 211 67 44 122 56 171 38z m1347 -11 c0 -24 -26 -38
-42 -22 -8 8 -8 15 2 27 18 21 40 19 40 -5z m370 -435 c17 -21 3 -35 -36 -35
-38 0 -41 5 -17 32 20 22 36 23 53 3z m-190 -39 c0 -17 -39 -48 -52 -40 -12 8
-10 21 8 38 19 20 44 21 44 2z m185 -218 c21 -46 46 -101 57 -122 36 -78 22
-88 -137 -101 -44 -3 -104 -13 -132 -21 -136 -36 -171 -48 -205 -65 -21 -11
-42 -19 -48 -19 -17 0 -11 30 8 37 22 9 240 183 273 219 14 16 47 57 73 92 26
34 53 62 60 62 7 0 30 -37 51 -82z m265 56 c0 -8 -9 -14 -20 -14 -22 0 -28 26
-7 33 16 6 27 -1 27 -19z m94 -220 c19 -19 12 -34 -15 -34 -19 0 -27 29 -12
43 9 9 9 9 27 -9z m-285 -152 c64 -32 76 -60 76 -182 0 -154 0 -154 -170 -147
-71 3 -179 13 -238 22 -91 14 -125 15 -217 5 -122 -13 -150 -6 -150 35 0 37
36 68 161 138 50 27 187 85 254 107 123 41 230 49 284 22z m416 -72 c9 -14
-13 -50 -31 -50 -8 0 -17 7 -20 15 -11 29 35 61 51 35z m-25 -255 c18 -21 5
-47 -22 -43 -26 3 -37 36 -16 49 18 12 24 11 38 -6z m-745 -65 c400 -11 412
-14 439 -93 15 -45 16 -63 7 -127 -15 -104 -26 -139 -58 -172 -34 -36 -64 -35
-125 2 -27 17 -64 33 -81 36 -52 9 -118 26 -197 51 -119 39 -267 56 -638 76
-74 4 -95 21 -59 50 12 9 72 44 132 77 61 33 130 72 155 85 25 14 56 25 70 25
14 -1 174 -5 355 -10z m757 -152 c8 -21 -2 -38 -23 -38 -19 0 -27 29 -12 43
11 11 31 8 35 -5z m-52 -258 c0 -24 -26 -38 -42 -22 -16 16 -2 42 22 42 13 0
20 -7 20 -20z m-2770 1 c0 -5 -20 -16 -45 -24 -51 -18 -59 -10 -17 15 30 18
62 23 62 9z m2516 -163 c3 -11 2 -24 -4 -30 -17 -17 -47 -4 -50 21 -6 42 41
50 54 9z m172 -54 c4 -25 -22 -49 -43 -40 -31 12 -9 70 25 64 8 -2 16 -13 18
-24z m-233 -143 c13 -41 -26 -75 -54 -47 -12 12 -12 20 -3 41 14 29 48 34 57
6z m142 -67 c4 -11 -1 -22 -12 -31 -16 -11 -21 -11 -35 3 -13 14 -13 17 4 30
26 18 35 18 43 -2z m-73 -151 c8 -20 -40 -73 -66 -73 -25 0 -23 38 4 67 25 27
53 30 62 6z m-2669 -23 c38 -11 77 -28 87 -37 9 -10 28 -47 41 -83 21 -55 32
-70 74 -100 110 -77 290 -260 338 -342 24 -42 99 -157 130 -201 62 -87 70
-167 17 -167 -65 1 -239 59 -259 86 -11 16 -37 33 -73 50 -36 17 -79 57 -89
82 -6 15 -23 46 -39 69 -15 23 -49 77 -75 120 -26 43 -70 112 -97 153 -124
191 -193 353 -163 383 10 11 34 8 108 -13z m266 -132 c211 -90 484 -223 619
-303 58 -34 168 -97 245 -140 77 -43 147 -83 155 -90 39 -32 247 -130 354
-166 122 -41 281 -106 338 -137 67 -37 59 -65 -27 -103 -43 -19 -49 -19 -108
-5 -34 9 -129 49 -212 90 -82 42 -251 125 -375 185 -452 220 -701 359 -796
444 -27 24 -70 58 -96 75 -91 62 -198 152 -198 167 0 22 19 19 101 -17z m505
-489 c32 -12 105 -47 163 -77 222 -115 623 -312 635 -312 5 0 73 -30 173 -75
58 -27 73 -54 49 -90 -20 -30 -97 -65 -145 -65 -36 0 -46 4 -136 55 -27 15
-75 41 -105 57 -30 17 -73 40 -95 53 -132 75 -199 106 -214 100 -24 -10 33
-56 165 -134 60 -36 144 -89 187 -120 75 -53 77 -55 77 -96 0 -48 -11 -61 -59
-67 -93 -13 -196 31 -321 136 -47 40 -119 98 -160 129 -83 62 -114 106 -124
178 -5 34 -3 49 8 58 12 10 2 24 -58 86 -40 41 -79 87 -86 102 -8 15 -22 38
-32 51 -18 25 -14 52 8 52 7 0 39 -10 70 -21z m1134 -109 c123 -46 228 -82
280 -97 30 -8 75 -21 100 -28 25 -7 90 -25 145 -39 112 -30 141 -50 131 -90
-16 -65 -121 -136 -200 -136 -21 0 -26 5 -26 25 0 25 -20 73 -44 103 -48 63
-107 98 -398 237 -43 21 -78 39 -78 41 0 10 40 2 90 -16z m-1291 -312 c57 -18
79 -30 98 -55 32 -42 53 -43 53 -3 0 25 4 30 23 30 35 0 113 -56 131 -94 18
-39 21 -82 6 -91 -6 -4 -47 12 -92 34 -45 23 -89 41 -98 41 -8 1 -26 7 -39 14
-18 10 -32 11 -54 4 -56 -20 -132 21 -156 84 -8 21 -7 31 5 43 21 20 36 19
123 -7z m1721 -118 c0 -21 -35 -80 -47 -80 -19 0 -16 37 5 65 17 25 42 33 42
15z m-381 -146 c14 -32 -2 -104 -24 -104 -8 0 -20 18 -26 40 -21 69 22 124 50
64z m-161 -87 c26 -28 42 -77 42 -128 0 -126 -44 -148 -125 -62 -39 42 -30 66
28 77 56 11 60 26 22 86 -14 22 -25 42 -25 45 0 14 39 2 58 -18z m-833 -10
c34 -1 66 -11 98 -30 41 -24 47 -32 47 -61 0 -19 9 -45 21 -60 32 -41 12 -55
-48 -33 -27 9 -69 20 -95 23 -39 6 -49 4 -54 -10 -4 -10 -2 -22 5 -29 16 -16
13 -47 -5 -47 -41 0 -216 213 -198 242 3 5 18 7 32 4 15 -3 34 -1 42 4 8 6 35
8 60 5 25 -3 68 -6 95 -8z m1174 -1 c8 -10 9 -16 1 -21 -13 -8 -30 3 -30 21 0
18 14 18 29 0z m-586 -161 c33 -36 75 -75 94 -86 39 -25 48 -66 11 -55 -44 13
-133 24 -140 17 -7 -6 -4 -21 22 -103 6 -18 12 -37 13 -42 4 -19 -36 -18 -62
1 -14 10 -79 43 -143 72 -97 44 -118 58 -118 75 0 15 10 25 30 33 36 14 41 50
10 78 -26 24 -25 49 3 63 12 6 67 11 121 11 l99 1 60 -65z m501 -29 c15 -32
15 -39 2 -71 -18 -41 -38 -45 -54 -10 -16 35 -15 60 3 96 18 35 27 32 49 -15z
m-157 -238 c28 -26 30 -59 4 -82 -30 -28 -61 -17 -79 28 -15 37 -14 39 9 57
31 24 38 24 66 -3z m-31 -183 c38 -29 51 -60 34 -80 -9 -11 -25 -13 -64 -9
-51 6 -54 5 -82 -29 -37 -45 -83 -55 -141 -32 -49 20 -58 37 -32 61 10 9 19
23 19 30 0 19 42 27 93 20 45 -7 65 5 80 47 9 25 54 21 93 -8z m83 -166 c16
-46 14 -67 -9 -79 -24 -13 -73 6 -77 30 -3 15 51 80 67 80 4 0 13 -14 19 -31z"/>
<path d="M6255 23739 c-126 -4 -374 -15 -550 -24 -633 -30 -963 -35 -2531 -35
-1775 0 -1622 7 -1611 -72 6 -45 19 -58 57 -58 33 0 161 -33 227 -58 86 -33
170 -90 248 -169 99 -100 156 -188 228 -355 41 -95 88 -306 115 -522 15 -120
16 -615 19 -5906 4 -6263 7 -5931 -48 -6269 -45 -280 -118 -500 -210 -632
-116 -167 -315 -285 -579 -343 l-55 -12 -3 -58 c-2 -41 1 -62 10 -67 15 -10
2758 -12 2782 -3 19 7 22 84 4 102 -7 7 -26 12 -42 12 -78 0 -280 44 -408 90
-206 73 -388 245 -484 457 -44 96 -89 231 -108 323 -67 328 -66 234 -66 3592
l0 2998 24 6 c44 11 1274 -2 1396 -15 371 -38 525 -72 745 -162 331 -136 606
-424 761 -797 45 -109 59 -146 75 -202 20 -72 18 -71 153 -68 l121 3 -4 320
c-4 394 14 1352 35 1810 14 318 21 411 59 820 36 390 36 394 25 415 -6 11 -17
20 -25 20 -19 0 -44 -27 -50 -53 -71 -304 -106 -426 -191 -687 -39 -118 -169
-402 -222 -482 -132 -202 -232 -308 -404 -428 -173 -119 -445 -209 -813 -267
-95 -15 -211 -17 -874 -21 -420 -2 -774 -1 -787 2 l-24 6 0 2883 c0 2416 2
2927 15 3162 15 286 29 452 38 461 9 9 1065 4 1195 -6 273 -21 535 -68 730
-131 21 -7 57 -19 82 -27 299 -96 580 -292 752 -524 159 -214 220 -330 328
-618 18 -47 38 -101 45 -120 7 -19 28 -89 45 -155 17 -66 35 -133 40 -150 8
-28 32 -154 65 -340 7 -44 21 -154 30 -245 9 -91 20 -201 25 -245 20 -164 49
-478 46 -484 -2 -3 0 -16 5 -28 10 -27 54 -32 63 -7 4 9 3 474 0 1033 -5 820
-3 1140 10 1659 10 353 14 651 11 662 -6 19 -15 20 -148 18 -78 0 -245 -5
-372 -9z"/>
<path d="M9201 23682 c-788 -1 -1098 -5 -1108 -13 -16 -14 -17 -71 -1 -87 7
-7 28 -12 47 -12 41 0 181 -23 256 -41 130 -31 261 -97 367 -187 100 -83 160
-157 217 -264 87 -163 117 -270 154 -553 20 -159 21 -185 26 -3595 l6 -3435
388 -5 c214 -3 393 -2 398 1 5 3 12 54 15 115 3 60 7 115 9 122 3 9 58 12 227
12 239 0 526 14 648 30 158 22 345 57 445 85 116 32 262 77 295 90 19 7 76 28
125 46 152 54 401 174 543 263 45 28 90 56 100 61 192 112 514 399 678 605 57
71 177 235 199 271 311 513 421 772 549 1284 57 229 87 393 123 680 25 198 25
865 0 1070 -50 409 -56 445 -143 799 -95 395 -256 786 -469 1144 -156 262
-438 584 -690 788 -85 69 -318 234 -330 234 -2 0 -23 13 -47 29 -51 34 -212
116 -318 160 -41 18 -84 36 -95 41 -41 19 -292 101 -385 126 -155 43 -219 55
-495 98 -154 24 -249 31 -550 39 -49 1 -582 1 -1184 -1z m1284 -182 c360 -29
518 -58 770 -142 270 -90 446 -181 650 -337 303 -232 543 -562 726 -999 22
-54 44 -106 49 -117 24 -58 108 -321 134 -425 4 -14 17 -65 30 -115 45 -174
79 -393 126 -815 37 -330 50 -1054 26 -1415 -22 -323 -65 -715 -86 -779 -6
-16 -10 -43 -10 -59 0 -17 -6 -58 -14 -91 -8 -34 -22 -95 -31 -136 -9 -41 -22
-95 -30 -120 -8 -25 -28 -92 -45 -150 -63 -210 -128 -387 -184 -500 -13 -25
-31 -63 -41 -85 -38 -81 -187 -319 -252 -403 -76 -98 -255 -279 -359 -363
-274 -223 -603 -374 -974 -448 -256 -51 -427 -66 -740 -66 l-265 0 0 3355 c0
3482 2 3654 42 4035 8 83 20 155 25 162 6 8 46 14 106 16 54 1 124 4 157 5 33
1 119 -2 190 -8z"/>
<path d="M16473 23682 l-873 -2 -6 -24 c-3 -13 -4 -36 -2 -52 3 -28 5 -29 104
-45 151 -25 230 -55 338 -128 85 -58 140 -116 188 -198 42 -71 85 -192 100
-278 5 -33 13 -82 18 -110 14 -84 11 -613 -5 -829 -8 -111 -22 -295 -30 -411
-8 -115 -22 -300 -30 -410 -8 -110 -21 -301 -30 -425 -8 -124 -22 -308 -30
-410 -8 -102 -21 -291 -30 -420 -9 -129 -22 -320 -30 -425 -8 -104 -22 -284
-30 -400 -9 -115 -20 -268 -25 -340 -10 -125 -33 -480 -65 -970 -8 -126 -21
-351 -30 -500 -8 -148 -20 -333 -25 -410 -6 -77 -15 -214 -20 -305 -5 -91 -14
-219 -20 -285 -5 -66 -17 -212 -25 -325 -9 -113 -20 -252 -25 -309 -6 -58 -10
-122 -10 -143 l0 -39 112 3 113 3 6 45 c8 52 23 255 44 590 8 129 20 303 25
385 6 83 15 227 20 320 5 94 14 238 19 320 6 83 17 260 26 395 8 135 22 342
30 460 8 118 21 323 30 455 9 132 22 330 30 440 8 110 22 306 30 435 30 467
63 927 90 1290 8 107 22 296 30 420 9 124 20 281 26 350 6 69 14 195 19 280 5
85 13 220 19 300 6 80 17 264 26 410 34 589 46 726 60 723 14 -3 45 -197 90
-563 9 -69 22 -170 30 -225 15 -106 35 -260 60 -452 9 -65 22 -156 30 -203 8
-47 21 -139 30 -205 8 -66 22 -172 31 -235 8 -63 22 -167 30 -230 8 -63 19
-142 25 -175 5 -33 14 -94 19 -135 5 -41 14 -106 20 -145 31 -192 64 -415 85
-575 9 -69 22 -168 30 -220 8 -52 21 -144 30 -205 34 -241 61 -429 90 -620 16
-106 38 -263 60 -430 9 -66 22 -163 30 -215 8 -52 21 -143 30 -202 34 -238 47
-327 60 -413 14 -88 27 -178 60 -420 9 -66 23 -160 30 -210 8 -49 21 -142 30
-205 9 -63 22 -155 30 -205 14 -90 31 -206 60 -405 9 -58 22 -148 30 -200 8
-52 21 -147 30 -210 25 -173 46 -304 51 -312 3 -5 189 -8 415 -8 l409 0 0 23
c-1 12 -7 60 -14 107 -52 325 -117 759 -141 945 -9 66 -22 161 -30 210 -8 50
-21 140 -30 200 -13 97 -38 266 -90 610 -8 55 -21 152 -30 215 -27 204 -46
334 -55 385 -5 28 -12 70 -15 95 -3 25 -12 86 -20 135 -8 50 -21 142 -30 205
-9 63 -22 160 -30 215 -8 55 -21 154 -30 220 -15 119 -30 226 -60 440 -8 61
-22 160 -30 220 -9 61 -27 180 -41 265 -14 85 -29 187 -34 225 -15 121 -70
508 -79 560 -5 28 -17 102 -26 165 -17 123 -35 241 -60 410 -9 58 -33 229 -55
380 -22 151 -46 320 -55 375 -9 55 -18 123 -21 150 -3 28 -11 88 -19 135 -23
138 -42 268 -59 385 -9 61 -23 160 -32 220 -8 61 -21 151 -29 200 -8 50 -21
137 -30 195 -9 58 -23 145 -30 194 -8 49 -15 93 -15 97 0 4 -6 8 -12 10 -7 2
-406 3 -885 1z"/>
<path d="M20482 23663 c-5 -10 -12 -45 -16 -78 -4 -33 -13 -103 -21 -155 -23
-162 -62 -463 -90 -710 -9 -74 -23 -184 -31 -245 -37 -281 -46 -347 -59 -440
-18 -126 -39 -292 -60 -465 -8 -74 -22 -187 -30 -250 -8 -63 -22 -171 -30
-240 -15 -118 -27 -211 -60 -460 -8 -58 -21 -161 -30 -230 -9 -69 -22 -170
-30 -225 -8 -55 -21 -156 -30 -225 -16 -131 -37 -280 -60 -440 -48 -319 -76
-537 -120 -920 -8 -74 -22 -184 -30 -245 -41 -304 -77 -570 -90 -655 -13 -90
-23 -169 -61 -462 -8 -68 -21 -163 -29 -213 -7 -49 -21 -146 -30 -215 -9 -69
-22 -168 -30 -220 -8 -52 -22 -151 -30 -220 -9 -69 -22 -172 -30 -230 -8 -58
-21 -166 -30 -240 -9 -74 -23 -175 -31 -224 -8 -49 -14 -107 -14 -128 l0 -38
104 0 c71 0 107 4 114 13 5 6 13 39 17 72 4 33 13 103 20 155 8 52 21 151 30
220 9 69 22 170 30 225 19 139 73 547 90 685 43 337 49 388 90 663 8 56 22
156 30 222 9 66 22 170 30 230 22 164 58 442 90 705 9 69 22 172 30 230 8 58
21 157 29 220 22 166 116 863 147 1085 6 44 15 114 19 155 5 41 13 107 19 145
26 182 65 486 86 675 17 151 58 469 120 920 8 58 21 161 30 230 9 69 23 177
31 240 24 185 45 352 50 397 5 44 18 62 29 42 4 -6 13 -95 20 -197 8 -103 18
-250 24 -327 6 -77 18 -248 26 -380 9 -132 20 -289 25 -350 5 -60 12 -173 15
-250 3 -77 10 -185 16 -240 5 -55 14 -167 19 -250 5 -82 14 -220 19 -305 31
-467 43 -634 56 -820 15 -210 33 -489 60 -915 18 -281 40 -595 60 -855 8 -102
21 -282 30 -400 8 -118 20 -267 26 -330 5 -63 14 -182 19 -265 5 -82 14 -220
20 -305 5 -85 17 -261 25 -390 9 -129 20 -291 25 -360 6 -69 15 -192 20 -275
14 -212 22 -291 30 -304 10 -17 858 -15 877 1 10 8 13 22 9 42 -3 17 -10 101
-16 186 -14 218 -44 576 -70 830 -5 52 -14 167 -20 255 -6 88 -12 169 -15 180
-2 12 -9 93 -15 180 -5 88 -14 207 -20 265 -5 58 -17 200 -25 315 -31 418 -46
612 -56 725 -14 162 -38 479 -49 650 -5 80 -12 163 -15 185 -3 22 -10 105 -15
185 -8 140 -13 196 -45 580 -8 96 -22 270 -30 385 -9 116 -22 287 -30 380 -19
229 -63 840 -91 1285 -36 563 27 897 214 1132 137 172 326 265 620 305 23 3
45 10 49 16 9 15 13 59 7 80 -5 16 -60 17 -979 17 -918 0 -975 -1 -983 -17z"/>
<path d="M26875 16821 c-3 -6 -26 -13 -50 -17 -29 -4 -45 -11 -45 -20 0 -24
30 -28 86 -10 41 13 54 22 54 37 0 20 -34 27 -45 10z"/>
<path d="M11561 15161 c-132 -54 -201 -193 -171 -343 21 -110 77 -181 168
-217 151 -59 320 16 366 162 36 115 8 272 -59 339 -70 70 -212 98 -304 59z
m181 -89 c20 -10 47 -31 60 -47 21 -27 23 -40 23 -141 0 -98 -3 -116 -21 -140
-39 -53 -70 -69 -138 -69 -53 0 -68 4 -99 28 -58 44 -72 78 -72 183 0 84 2 93
29 128 57 75 137 96 218 58z"/>
<path d="M15173 15161 c-62 -24 -115 -72 -148 -132 -27 -49 -29 -62 -29 -149
1 -111 18 -156 89 -224 76 -73 186 -94 290 -54 103 39 160 138 92 161 -24 8
-32 4 -71 -37 -50 -51 -77 -61 -142 -53 -99 11 -160 103 -151 227 5 80 25 122
79 160 32 24 51 30 90 30 56 0 80 -10 126 -53 32 -31 33 -31 60 -15 41 25 40
54 -5 96 -63 60 -189 80 -280 43z"/>
<path d="M16120 15170 c-4 -3 -11 -19 -14 -37 -9 -42 3 -48 91 -44 64 2 73 0
82 -18 8 -14 11 -97 11 -241 -1 -121 1 -224 5 -230 10 -17 82 -12 89 6 3 9 6
116 6 239 0 168 3 226 13 232 6 4 46 10 87 13 l75 5 0 35 0 35 -218 5 c-121 3
-222 3 -227 0z"/>
<path d="M18201 15164 c-24 -9 -59 -25 -77 -37 -140 -92 -148 -388 -13 -487
93 -67 205 -76 312 -26 58 28 99 71 130 139 26 57 24 213 -3 270 -59 125 -215
188 -349 141z m209 -121 c51 -54 68 -127 52 -216 -14 -72 -34 -104 -88 -134
-56 -32 -118 -30 -172 4 -59 39 -82 90 -82 184 0 143 64 213 189 206 59 -3 66
-6 101 -44z"/>
<path d="M23928 15166 c-76 -28 -105 -59 -122 -129 -21 -86 74 -187 176 -187
9 0 41 -9 71 -21 63 -24 85 -57 68 -100 -30 -80 -192 -78 -249 2 -7 11 -19 19
-26 19 -17 0 -56 -43 -56 -62 0 -24 68 -73 129 -93 92 -30 223 -5 272 51 39
45 48 120 23 184 -13 32 -26 44 -67 64 -29 13 -77 30 -107 36 -79 17 -119 37
-129 62 -32 86 114 132 204 64 41 -31 54 -30 75 8 18 35 7 53 -50 85 -53 30
-157 38 -212 17z"/>
<path d="M25900 15162 c-69 -26 -144 -106 -164 -174 -50 -174 20 -338 166
-387 78 -26 133 -27 200 0 91 35 150 111 114 147 -25 25 -59 16 -102 -25 -60
-58 -120 -67 -194 -30 -63 31 -90 86 -90 185 0 89 22 139 82 182 31 22 52 30
85 30 56 0 107 -21 128 -54 20 -31 41 -32 73 -7 29 25 28 39 -6 78 -56 66
-193 92 -292 55z"/>
<path d="M4175 15157 c-3 -7 -4 -136 -3 -287 l3 -275 42 -3 c55 -4 63 12 58
124 -2 53 1 94 7 101 7 9 43 13 119 13 99 0 109 2 119 20 6 12 8 30 5 40 -6
18 -16 20 -119 20 -90 0 -116 3 -126 15 -16 20 -6 145 12 157 7 4 63 8 125 7
61 -1 116 2 122 6 12 7 14 35 5 59 -5 14 -31 16 -185 16 -136 0 -181 -3 -184
-13z"/>
<path d="M5195 15157 c-3 -7 -4 -136 -3 -287 l3 -275 42 -3 c34 -3 44 1 53 18
14 25 12 514 -2 543 -10 21 -86 24 -93 4z"/>
<path d="M6006 15154 c-3 -9 -6 -132 -6 -274 0 -142 3 -265 6 -274 5 -14 32
-16 195 -16 156 0 189 2 189 14 0 8 2 20 5 28 13 35 -10 42 -137 41 -70 -1
-128 3 -135 9 -10 8 -13 68 -13 237 0 163 -3 230 -12 239 -18 18 -85 15 -92
-4z"/>
<path d="M7046 15155 c-8 -21 -8 -528 0 -549 4 -11 19 -16 44 -16 25 0 40 5
44 16 3 9 6 96 6 195 0 102 4 179 9 179 5 0 17 -24 26 -52 17 -51 56 -151 75
-193 5 -11 19 -45 31 -75 23 -62 32 -70 75 -70 33 0 47 11 57 45 3 11 14 43
25 70 11 28 38 97 60 155 22 57 45 106 51 108 7 2 11 -54 13 -185 l3 -188 45
0 45 0 0 285 0 285 -61 3 c-67 3 -64 6 -102 -93 -11 -27 -39 -97 -62 -155 -23
-58 -45 -120 -50 -138 -5 -19 -11 -36 -14 -40 -13 -12 -35 26 -71 118 -20 52
-43 112 -51 133 -8 20 -21 56 -30 80 -34 92 -34 92 -101 95 -48 2 -62 0 -67
-13z"/>
<path d="M9187 15163 c-10 -9 -8 -546 2 -561 5 -9 24 -12 52 -10 l44 3 3 94
c1 52 8 101 14 108 7 9 35 13 82 13 150 -1 209 34 237 140 10 40 9 51 -12 105
-22 54 -29 62 -79 87 -52 26 -62 28 -196 28 -77 0 -144 -3 -147 -7z m301 -107
c21 -21 27 -36 27 -72 0 -64 -31 -89 -118 -98 -99 -11 -107 -4 -107 97 0 53 5
88 13 96 8 9 33 12 85 8 63 -3 77 -8 100 -31z"/>
<path d="M10297 15163 c-10 -9 -8 -546 2 -561 5 -8 23 -12 47 -10 l39 3 3 104
c1 58 7 110 13 117 13 16 97 15 131 -2 26 -13 39 -40 79 -159 19 -59 27 -65
75 -65 54 0 56 12 19 96 -14 31 -25 62 -25 69 0 6 -13 31 -29 55 -30 45 -31
65 -3 75 59 18 84 156 40 217 -38 55 -85 68 -244 68 -77 0 -144 -3 -147 -7z
m268 -79 c9 -4 24 -23 34 -43 24 -48 12 -95 -29 -116 -35 -18 -151 -20 -168
-3 -17 17 -16 155 1 161 18 8 143 8 162 1z"/>
<path d="M12617 15163 c-9 -8 -9 -536 -1 -557 5 -13 27 -16 136 -16 180 0 261
24 317 96 59 75 69 279 18 360 -62 99 -128 124 -327 124 -75 0 -140 -3 -143
-7z m278 -84 c79 -22 125 -97 125 -204 -1 -57 -20 -117 -46 -146 -27 -29 -70
-45 -147 -53 -114 -13 -107 -26 -107 203 0 109 3 201 7 204 10 11 124 8 168
-4z"/>
<path d="M13822 15157 c-6 -7 -11 -82 -11 -190 -2 -267 25 -331 156 -372 122
-38 251 2 303 95 24 43 25 54 28 241 4 222 0 239 -51 239 -18 0 -38 -5 -45
-12 -9 -9 -12 -70 -12 -213 0 -200 0 -200 -25 -227 -55 -60 -154 -61 -212 -3
l-33 33 -2 139 c-1 76 -3 165 -3 198 0 33 -4 66 -8 73 -11 16 -71 16 -85 -1z"/>
<path d="M17225 15157 c-3 -7 -4 -136 -3 -287 l3 -275 40 -3 c25 -2 43 1 50
11 12 16 13 536 1 555 -10 16 -85 15 -91 -1z"/>
<path d="M19275 15158 c-3 -7 -4 -137 -3 -288 l3 -275 33 -3 c60 -6 62 0 62
209 0 207 5 223 49 146 38 -67 222 -341 235 -349 18 -12 81 -9 94 4 9 9 12 85
12 279 0 294 0 293 -62 287 l-33 -3 -3 -185 c-1 -101 -6 -188 -11 -193 -5 -5
-31 24 -59 65 -27 41 -66 98 -86 126 -20 29 -36 55 -37 59 0 5 -19 35 -42 68
-42 59 -43 60 -95 63 -36 2 -54 -1 -57 -10z"/>
<path d="M21286 15162 c-8 -13 -11 -547 -2 -560 9 -15 72 -16 81 -2 4 6 6 94
6 195 0 102 3 185 7 185 13 0 36 -43 58 -110 12 -36 32 -87 44 -115 12 -27 29
-70 37 -95 21 -62 30 -70 74 -70 33 0 41 5 54 30 8 16 15 34 15 40 0 7 6 26
14 43 7 18 28 68 46 112 49 123 70 168 77 162 3 -3 5 -86 4 -184 0 -98 3 -184
8 -191 5 -8 23 -12 47 -10 l39 3 0 285 0 285 -65 3 -66 3 -21 -53 c-12 -29
-48 -125 -80 -213 -33 -88 -65 -160 -72 -160 -11 0 -44 76 -127 298 -9 23 -24
61 -35 85 l-19 42 -59 0 c-33 0 -62 -4 -65 -8z"/>
<path d="M22634 15159 c-4 -6 -9 -91 -12 -188 -4 -152 -2 -185 13 -232 40
-124 157 -180 307 -149 75 16 129 61 152 123 18 52 27 220 18 352 l-7 100 -45
0 -45 0 -5 -205 c-3 -140 -9 -212 -18 -227 -30 -53 -133 -79 -191 -49 -59 31
-64 52 -67 268 -1 109 -5 202 -9 208 -8 14 -82 13 -91 -1z"/>
<path d="M24915 15157 c-3 -7 -4 -136 -3 -287 l3 -275 45 0 45 0 6 45 c10 62
5 502 -4 518 -11 16 -86 16 -92 -1z"/>
<path d="M9550 14240 l-385 -5 -6 -1875 c-6 -1821 -6 -1879 -26 -2020 -29
-200 -41 -260 -75 -370 -81 -256 -219 -440 -411 -544 -144 -79 -250 -113 -427
-141 -63 -9 -122 -21 -130 -25 -9 -4 -16 -25 -18 -53 -3 -41 -1 -47 20 -52 13
-3 689 -4 1503 -3 l1480 3 3 53 c3 60 11 55 -108 71 -179 25 -210 31 -306 63
-105 35 -239 109 -309 170 -146 129 -265 374 -314 651 -75 427 -73 377 -78
2262 -2 908 -3 1687 -3 1731 0 57 -4 83 -12 85 -7 2 -186 2 -398 -1z"/>
<path d="M21280 14242 c-18 -6 -13 -103 30 -662 6 -74 15 -191 20 -260 5 -69
14 -190 20 -270 5 -80 17 -244 25 -365 8 -121 22 -308 30 -415 8 -107 22 -323
30 -480 8 -157 20 -348 25 -425 13 -167 31 -582 32 -715 2 -229 -27 -548 -62
-682 -61 -236 -202 -407 -424 -517 -58 -29 -121 -57 -139 -62 -17 -4 -63 -17
-102 -29 -147 -43 -482 -90 -642 -90 -50 0 -98 -3 -107 -6 -23 -9 -23 -99 0
-108 24 -9 3567 -7 3582 3 9 5 12 25 10 57 -3 44 -6 49 -28 52 -61 6 -221 36
-280 53 -403 112 -621 363 -769 889 -58 207 -92 416 -115 700 -3 36 -12 144
-21 240 -21 249 -53 665 -91 1170 -8 113 -19 262 -25 332 -16 213 -39 525 -49
683 -5 83 -14 200 -20 260 -19 208 -31 350 -41 490 -6 77 -14 144 -19 149 -8
8 -846 16 -870 8z"/>
<path d="M19340 14230 l-105 -5 -2 -30 c-2 -16 -7 -61 -13 -100 -6 -38 -14
-110 -19 -160 -6 -49 -21 -178 -35 -285 -25 -197 -45 -364 -72 -610 -8 -74
-21 -182 -30 -240 -8 -58 -21 -149 -28 -203 -7 -53 -16 -100 -20 -104 -11 -11
-26 19 -26 51 0 28 -11 99 -49 316 l-16 95 -420 3 c-230 1 -423 -2 -427 -6 -8
-8 -5 -37 28 -252 8 -52 21 -138 29 -190 31 -208 67 -454 105 -740 29 -212 44
-315 70 -490 6 -41 15 -109 20 -150 14 -113 68 -541 80 -623 16 -111 38 -271
55 -392 8 -60 22 -157 30 -215 7 -58 21 -154 29 -215 8 -60 22 -166 31 -235
52 -412 109 -792 120 -811 9 -14 41 -11 54 5 12 14 34 143 51 291 5 44 20 157
34 250 14 94 32 226 41 295 9 69 22 170 30 225 8 55 21 154 30 220 9 66 22
167 30 225 31 223 72 534 91 680 17 130 36 275 59 430 18 129 33 248 45 360 5
47 18 153 30 235 11 83 25 186 30 230 5 44 14 112 19 150 26 188 41 301 56
425 28 242 55 452 90 710 8 58 21 158 29 223 34 255 48 356 61 450 18 121 19
184 3 188 -7 2 -60 2 -118 -1z"/>
<path d="M24777 14227 c-5 -14 7 -154 23 -257 5 -36 17 -119 26 -185 8 -66 29
-208 45 -315 16 -107 37 -242 45 -300 33 -226 84 -494 130 -685 13 -55 28
-120 33 -145 5 -25 25 -108 46 -185 38 -143 42 -160 69 -255 24 -86 170 -515
211 -620 242 -626 509 -1093 849 -1485 85 -98 225 -236 310 -303 39 -31 73
-59 76 -62 14 -16 175 -123 250 -167 197 -115 372 -179 595 -219 141 -26 490
-25 625 0 194 37 268 58 460 131 64 24 203 101 315 172 208 134 453 352 634
563 154 179 399 534 490 710 4 8 36 68 70 134 35 65 78 150 97 190 19 39 39
78 44 87 9 17 130 307 154 369 8 19 21 53 29 75 57 148 131 370 182 550 10 33
23 78 30 100 32 97 116 429 150 585 8 41 19 93 24 114 8 34 6 42 -15 63 -38
38 -67 28 -77 -27 -10 -54 -51 -226 -106 -445 -22 -88 -43 -171 -47 -185 -7
-29 -90 -301 -105 -345 -108 -313 -137 -383 -268 -655 -161 -333 -271 -506
-489 -767 -145 -175 -368 -366 -557 -480 -55 -32 -228 -114 -290 -136 -308
-109 -650 -115 -935 -16 -63 22 -260 121 -323 162 -368 240 -688 593 -983
1084 -41 68 -74 125 -74 128 0 3 -12 24 -26 46 -28 44 -172 329 -224 444 -55
119 -190 435 -226 530 -20 50 -42 108 -51 130 -30 78 -42 111 -58 165 -10 30
-22 66 -27 80 -83 211 -232 737 -302 1065 -10 44 -21 98 -27 120 -17 74 -41
199 -63 325 l-21 125 -356 3 c-288 2 -358 0 -362 -11z"/>
<path d="M14670 14040 c-67 -10 -112 -34 -154 -81 -51 -55 -67 -99 -74 -192
-7 -113 25 -199 98 -261 108 -91 285 -83 372 16 42 48 46 67 20 91 -28 25 -48
21 -77 -17 -75 -99 -226 -81 -285 34 -15 29 -20 59 -20 113 0 84 15 130 57
169 41 39 78 50 142 42 45 -6 63 -14 89 -40 19 -19 42 -34 51 -34 21 0 46 19
54 41 7 21 -45 81 -88 102 -38 18 -126 26 -185 17z"/>
<path d="M15625 14028 c-3 -7 -4 -139 -3 -293 l3 -280 179 -3 c193 -3 209 1
204 47 l-3 26 -140 5 -140 5 -5 250 -5 250 -43 3 c-28 2 -44 -1 -47 -10z"/>
<path d="M16644 14026 c-3 -8 -4 -112 -2 -230 l3 -214 30 -43 c57 -81 182
-117 292 -83 71 21 105 51 132 115 20 45 21 64 19 256 l-3 208 -45 0 -45 0 -5
-205 c-6 -235 -12 -256 -80 -284 -53 -21 -83 -20 -128 3 -64 33 -66 43 -72
276 l-5 210 -43 3 c-30 2 -44 -1 -48 -12z"/>
<path d="M17837 14033 c-4 -3 -7 -131 -7 -283 0 -201 3 -279 12 -288 8 -8 57
-12 156 -12 173 0 221 15 265 82 49 77 27 181 -46 216 -34 16 -34 23 1 63 23
28 27 41 26 91 -1 66 -16 88 -76 119 -31 16 -60 19 -181 19 -79 0 -147 -3
-150 -7z m295 -102 c27 -35 24 -85 -8 -110 -22 -17 -41 -21 -104 -21 -88 0
-90 2 -90 80 0 82 1 83 98 78 73 -4 88 -8 104 -27z m32 -230 c19 -16 29 -64
21 -101 -10 -45 -65 -70 -152 -70 -37 0 -73 4 -79 8 -12 8 -25 154 -15 171 14
21 197 15 225 -8z"/>
<path d="M15706 13118 c-6 -27 -33 -417 -46 -663 -5 -93 -12 -188 -15 -210 -2
-22 -9 -119 -15 -215 -6 -96 -15 -227 -20 -290 -5 -63 -17 -205 -25 -315 -44
-560 -115 -1004 -202 -1265 -89 -268 -158 -398 -296 -554 -50 -57 -165 -156
-181 -156 -3 0 -24 -13 -48 -28 -102 -68 -328 -138 -488 -154 -34 -3 -35 -4
-38 -52 -2 -32 1 -52 10 -57 7 -5 733 -9 1614 -9 1231 0 1603 3 1612 12 16 16
15 83 0 95 -7 6 -78 13 -157 17 -578 26 -948 141 -1178 365 -109 106 -229 314
-286 496 -53 170 -102 457 -118 700 -15 217 0 673 31 965 10 102 31 373 55
725 8 121 22 302 31 401 9 100 14 189 11 198 -5 13 -25 16 -126 16 -117 0
-121 -1 -125 -22z"/>
</g>
</svg>
